<svg xmlns="http://www.w3.org/2000/svg" width="50" height="50"><path fill="#fffffc" d="M7.1 37.98V10.91h36.18v27.33z"/><path fill="#7289da" d="M29.69 22.77c-1.46 0-2.61 1.28-2.61 2.84s1.18 2.83 2.6 2.83c1.47 0 2.62-1.27 2.62-2.83s-1.15-2.84-2.61-2.84zm-9.33 0c-1.46 0-2.61 1.28-2.61 2.84s1.17 2.83 2.6 2.83c1.46 0 2.61-1.27 2.61-2.83.03-1.56-1.15-2.84-2.6-2.84zM25 .02a25 25 0 0 0-1.77.06 25 25 0 0 0-2.48.3 25 25 0 0 0-2.44.55 25 25 0 0 0-2.37.78 25 25 0 0 0-2.28 1.03 25 25 0 0 0-2.17 1.24 25 25 0 0 0-2.03 1.45 25 25 0 0 0-1.88 1.65 25 25 0 0 0-1.7 1.83 25 25 0 0 0-1.52 2 25 25 0 0 0-1.3 2.12 25 25 0 0 0-1.1 2.25 25 25 0 0 0-.85 2.35 25 25 0 0 0-.62 2.42 25 25 0 0 0-.37 2.48 25 25 0 0 0-.13 2.5 25 25 0 0 0 .07 1.76 25 25 0 0 0 .3 2.48 25 25 0 0 0 .55 2.44 25 25 0 0 0 .78 2.37 25 25 0 0 0 1.03 2.28 25 25 0 0 0 1.24 2.17 25 25 0 0 0 1.45 2.04 25 25 0 0 0 1.65 1.87 25 25 0 0 0 1.83 1.7 25 25 0 0 0 2 1.52 25 25 0 0 0 2.12 1.3 25 25 0 0 0 2.25 1.1 25 25 0 0 0 2.35.85 25 25 0 0 0 2.42.62 25 25 0 0 0 2.47.37 25 25 0 0 0 2.5.13 25 25 0 0 0 1.77-.06 25 25 0 0 0 2.48-.3 25 25 0 0 0 2.44-.55 25 25 0 0 0 2.37-.8 25 25 0 0 0 2.28-1.01 25 25 0 0 0 2.17-1.25 25 25 0 0 0 2.04-1.45 25 25 0 0 0 1.87-1.65 25 25 0 0 0 1.7-1.83 25 25 0 0 0 1.52-1.99 25 25 0 0 0 1.3-2.13 25 25 0 0 0 1.1-2.25 25 25 0 0 0 .85-2.35 25 25 0 0 0 .62-2.42 25 25 0 0 0 .37-2.47 25 25 0 0 0 .13-2.5 25 25 0 0 0-.06-1.77 25 25 0 0 0-.3-2.48 25 25 0 0 0-.55-2.44 25 25 0 0 0-.8-2.37 25 25 0 0 0-1.01-2.28 25 25 0 0 0-1.25-2.17 25 25 0 0 0-1.45-2.03 25 25 0 0 0-1.65-1.88 25 25 0 0 0-1.83-1.7 25 25 0 0 0-1.99-1.52A25 25 0 0 0 37 3.08a25 25 0 0 0-2.25-1.1 25 25 0 0 0-2.35-.85 25 25 0 0 0-2.42-.62A25 25 0 0 0 27.5.14 25 25 0 0 0 25 .02zm-3.94 13.21l.26.3c-4.6 1.34-6.73 3.36-6.73 3.36s.56-.31 1.51-.75a19.2 19.2 0 0 1 5.8-1.6c.16-.03.29-.06.44-.06a20.84 20.84 0 0 1 12.86 2.4s-2.02-1.91-6.37-3.24l.36-.41s3.5-.08 7.19 2.68c0 0 3.68 6.68 3.68 14.91 0 0-2.17 3.71-7.83 3.89 0 0-.92-1.1-1.68-2.07 3.35-.95 4.63-3.05 4.63-3.05a14.63 14.63 0 0 1-2.95 1.51 17.91 17.91 0 0 1-10.33 1.07 21.47 21.47 0 0 1-5.62-1.96l-.23-.13a8.99 8.99 0 0 1-.82-.51s1.23 2.05 4.48 3.02c-.77.97-1.72 2.12-1.72 2.12-5.65-.18-7.8-3.89-7.8-3.89 0-8.23 3.69-14.9 3.69-14.9 3.68-2.77 7.18-2.69 7.18-2.69z"/></svg>