<svg width="50" height="50" viewBox="0 0 50 50" xmlns="http://www.w3.org/2000/svg"><g fill="none" fill-rule="evenodd"><circle fill="#1A1919" cx="25" cy="25" r="25"></circle><path d="M14.474 27.362c0-2.066.573-3.794 1.72-5.18a7.286 7.286 0 0 1-.341-2.224 6.48 6.48 0 0 1 .644-2.853c.912 0 1.714.171 2.404.517.692.345 1.49.882 2.392 1.616 1.28-.31 2.592-.463 3.908-.456 1.25 0 2.43.14 3.544.418.885-.714 1.675-1.242 2.366-1.582.692-.342 1.489-.51 2.392-.51.429.89.644 1.842.644 2.853a7.118 7.118 0 0 1-.342 2.197c1.148 1.395 1.721 3.131 1.721 5.206 0 1.807-.258 3.25-.772 4.332a5.227 5.227 0 0 1-1.334 1.74 6.892 6.892 0 0 1-1.786 1.123c-.618.263-1.337.47-2.15.623-.816.152-1.54.247-2.17.286-.632.04-1.335.058-2.111.058a27.654 27.654 0 0 1-3.664-.202c-.653-.073-1.299-.204-1.928-.392a13.053 13.053 0 0 1-1.733-.674 5.587 5.587 0 0 1-1.532-1.06 5.426 5.426 0 0 1-1.088-1.505c-.521-1.075-.784-2.517-.784-4.331zm2.834 2.302c0 .769.134 1.439.405 2.01.27.57.61 1.02 1.024 1.347.413.326.929.588 1.543.784a9.024 9.024 0 0 0 1.773.387c.565.06 1.193.092 1.884.092h2.126c.69 0 1.32-.031 1.884-.092a9.004 9.004 0 0 0 1.773-.387c.614-.197 1.131-.458 1.543-.784.413-.329.754-.776 1.024-1.347s.405-1.241.405-2.01c0-1.046-.29-1.934-.872-2.668-.583-.733-1.371-1.099-2.366-1.099-.346 0-1.168.092-2.467.277-.658.1-1.322.147-1.987.142-.665.004-1.33-.044-1.987-.145-1.281-.184-2.105-.274-2.467-.274-.995 0-1.783.366-2.366 1.1-.581.732-.872 1.621-.872 2.667zm2.024 0c0-.348.052-.705.157-1.072.106-.366.287-.697.545-.995.257-.296.563-.444.917-.444.356 0 .66.148.917.444.258.298.44.63.545.995.105.369.158.724.158 1.072 0 .35-.053.707-.158 1.074a2.583 2.583 0 0 1-.545.995c-.256.297-.563.447-.917.447-.355 0-.66-.15-.917-.447a2.6 2.6 0 0 1-.545-.994 3.868 3.868 0 0 1-.157-1.072v-.003zm8.097 0c0-.348.053-.705.158-1.072.105-.366.287-.697.545-.995.256-.296.563-.444.917-.444.355 0 .66.148.917.444a2.6 2.6 0 0 1 .543.995c.105.369.158.724.158 1.072 0 .35-.053.707-.158 1.074a2.58 2.58 0 0 1-.543.995c-.257.297-.563.447-.917.447-.356 0-.66-.15-.917-.447a2.6 2.6 0 0 1-.545-.994 3.868 3.868 0 0 1-.158-1.072v-.003z" fill="#FFF"></path></g></svg>
