<svg xmlns="http://www.w3.org/2000/svg" width="50" height="50" aria-hidden="true" class="svg-inline--fa fa-gitlab fa-w-16" data-icon="gitlab" data-prefix="fab"><circle cx="25" cy="487" r="25" fill="#292961" stroke-width=".1" transform="translate(0 -462)"/><g fill="none" fill-rule="evenodd"><path fill="#fc6d26" d="M37.95 26.99L36.5 22.5l-2.89-8.87a.5.5 0 0 0-.94 0L29.8 22.5H20.2l-2.88-8.87a.5.5 0 0 0-.94 0L13.5 22.5 12.05 27a1 1 0 0 0 .36 1.1L25 37.25l12.6-9.14a1 1 0 0 0 .35-1.11"/><path fill="#e24329" d="M25 37.24l4.79-14.73H20.2z"/><path fill="#fc6d26" d="M25 37.24l-4.79-14.73h-6.7z"/><path fill="#fca326" d="M13.5 22.51L12.05 27a1 1 0 0 0 .36 1.1L25 37.25z"/><path fill="#e24329" d="M13.5 22.51h6.71l-2.88-8.87a.5.5 0 0 0-.94 0z"/><path fill="#fc6d26" d="M25 37.24l4.79-14.73h6.7z"/><path fill="#fca326" d="M36.5 22.51L37.95 27a1 1 0 0 1-.36 1.1L25 37.25z"/><path fill="#e24329" d="M36.5 22.51h-6.71l2.88-8.87a.5.5 0 0 1 .94 0z"/></g></svg>