<svg xmlns="http://www.w3.org/2000/svg" width="50" height="50"><g fill="none" fill-rule="evenodd"><rect width="50" height="50" fill="#000" rx="25"/><path fill="#D51007" d="M23.11 31.79l-1.17-3.18s-1.9 2.12-4.77 2.12c-2.53 0-4.32-2.2-4.32-5.7 0-4.5 2.27-6.1 4.5-6.1 3.23 0 4.26 2.08 5.14 4.75l1.17 3.65c1.17 3.55 3.37 6.4 9.72 6.4 4.54 0 7.62-1.4 7.62-5.05 0-2.96-1.69-4.5-4.84-5.22l-2.34-.52c-1.62-.36-2.1-1.02-2.1-2.12 0-1.24 1-1.97 2.6-1.97 1.77 0 2.72.66 2.87 2.23l3.66-.44c-.29-3.29-2.56-4.64-6.3-4.64-3.3 0-6.53 1.24-6.53 5.23 0 2.48 1.21 4.05 4.26 4.79l2.49.58c1.87.44 2.5 1.2 2.5 2.27 0 1.35-1.33 1.9-3.82 1.9-3.7 0-5.24-1.94-6.12-4.6l-1.21-3.66c-1.54-4.76-4-6.51-8.87-6.51C11.85 16 9 19.4 9 25.17c0 5.56 2.86 8.56 8 8.56 4.13 0 6.11-1.94 6.11-1.94z"/></g></svg>