<svg xmlns="http://www.w3.org/2000/svg" width="50" height="50"><g fill="#2e51a2" fill-rule="evenodd"><rect width="50" height="50" rx="25"/><path d="M35.36 23.24c0 1.04-.77 1.88-1.72 1.88s-1.72-.84-1.72-1.88.77-1.89 1.72-1.89 1.72.85 1.72 1.89zm-1.73-3.5c-1.76 0-3.2 1.55-3.2 3.48l-2 3.13a2.2 2.2 0 0 0-1.48.35l-9.06-3.98c-.23-1.18-1.2-2.06-2.34-2.06-1.32 0-2.4 1.18-2.4 2.63 0 1.44 1.08 2.62 2.4 2.62.45 0 .87-.14 1.23-.37l9.05 3.98c.24 1.17 1.2 2.06 2.35 2.06 1.24 0 2.26-1.04 2.38-2.36l3.07-2.46c1.77 0 3.21-1.57 3.21-3.51s-1.44-3.51-3.2-3.51zm0 1.15c1.19 0 2.15 1.06 2.15 2.36s-.96 2.35-2.15 2.35-2.15-1.05-2.15-2.35.97-2.36 2.15-2.36zm-18.08.46c.68 0 1.27.42 1.56 1.03l-.87-.39c-.71-.27-1.5.1-1.78.88-.28.76.04 1.63.73 1.97l.74.32a1.6 1.6 0 0 1-.38.05c-.97 0-1.76-.86-1.76-1.92 0-1.07.79-1.94 1.76-1.94zm12.62 5.68c.98 0 1.77.86 1.77 1.93s-.79 1.92-1.77 1.92c-.67 0-1.26-.41-1.56-1.02l.87.38c.72.31 1.54-.06 1.83-.85.29-.79-.06-1.68-.78-2l-.74-.31c.13-.03.25-.05.39-.05z"/></g><g fill="#fff"><path fill-opacity=".99" d="M8.35 17.73v13.42h3.27V23l2.83 3.71 2.84-3.69v8.11h3.26V17.74h-3.24l-2.87 4.1-2.88-4.1z"/><path d="M32.98 21.04v10.1h-3.63v-4.43H25.3c.27 1.93.56 2.78 1.51 4.42l-2.71 2c-3.48-5.73-2.5-15.27 5.32-15.39h3.18l.79 2.81h-4.01c-1.5.06-2.94 1.18-3.4 3.26h3.42v-2.77zM35 17.74V31.1h6.97l.77-2.88h-4.51V17.74z"/></g></svg>