<svg width="50" height="50" version="1.1" viewBox="0 0 13.229167 13.229167" xmlns="http://www.w3.org/2000/svg"><g transform="translate(-.2673 -283.4)"><circle cx="6.883" cy="290" r="6.616" fill="#fff"/></g><g transform="translate(-.2673 -283.4)"><circle cx="6.911" cy="290" r="5.945" fill="#e6649e" fill-opacity=".9849"/></g><g transform="translate(-.2673 -283.4)" fill="#fff"><path d="m3.601 288.7c-.8264-1e-5-1.231.6009-1.231 1.342-2e-7.7412.2913 1.342 1.231 1.342.9398 0 1.231-.6008 1.231-1.342 0-.7412-.4046-1.342-1.231-1.342zm.00468.5576c.4243 0 .5222.3544.5222.7916 0 .4372-.09912.7916-.5222.7916-.4231 0-.5222-.3544-.5222-.7916 2e-7-.4372.09794-.7916.5222-.7916z"/><path d="m11.27 291.3c-.2645.0414-.553.0341-.7695-.00052-.04172-.2636-.03336-.5556-.0014-.7705.2663-.0436.5587-.036.7787-.004.03311.2639.02861.5613-.0078.7742z"/><path d="m11.23 290.2c-.226.038-.4761.0358-.691.003-.04172-.2636-.08849-2.231-.05655-2.446.2664-.0436.5587-.036.7787-.004.0166.2612.0079 2.206-.03119 2.447z"/><path d="m7.614 288.8c.2361-.0368.4723-.0344.7084 0 0 1.043-.02484 1.758.1381 1.894.182.1523.5625.1042.6773.0875v-1.985c.2306-.0273.4668-.0349.7151 0v2.436c-.3539.1247-.6397.1682-1.062.168-1.285 0-1.177-.7168-1.177-2.601z"/><path d="m7.06 288.8c-.00975.1705-.06802.3328-.1303.4945-.3241-.1771-.9396-.2001-.9403.1022-.00104.5114 1.346.0294 1.109 1.294-.1123.6-1.202.8094-1.853.4853.01818-.1843.06316-.357.1437-.5146.2814.1466 1.051.276 1.087-.14.03478-.4044-1.036-.2392-1.146-.8472-.2154-1.192 1.272-1.089 1.73-.874z"/></g></svg>