<svg xmlns="http://www.w3.org/2000/svg" width="50" height="50"><circle cx="6.88" cy="290" r="6.62" fill="#fff" transform="translate(-.27 -283.4)"/><circle cx="6.91" cy="290" r="5.95" fill="#e6649e" fill-opacity=".98" transform="translate(-.27 -283.4)"/><g fill="#fff"><path d="M3.33 5.3c-.82 0-1.23.6-1.23 1.34 0 .74.3 1.34 1.23 1.34.94 0 1.23-.6 1.23-1.34 0-.74-.4-1.34-1.23-1.34zm0 .56c.43 0 .53.35.53.79 0 .44-.1.8-.52.8-.42 0-.52-.36-.52-.8 0-.44.1-.8.52-.8zM11 7.9a2.6 2.6 0 0 1-.77 0 2.7 2.7 0 0 1 0-.77c.27-.04.56-.04.78 0 .03.26.03.56 0 .77zM10.96 6.8c-.22.04-.47.04-.69 0-.04-.26-.09-2.23-.05-2.44.26-.05.55-.04.77 0 .02.25.01 2.2-.03 2.44zM7.35 5.4c.23-.04.47-.03.7 0 0 1.04-.02 1.76.14 1.9.19.15.57.1.68.08V5.4c.23-.03.47-.04.72 0v2.43A2.9 2.9 0 0 1 8.52 8c-1.28 0-1.17-.72-1.17-2.6zM6.8 5.4c-.02.17-.08.33-.14.5-.32-.18-.94-.2-.94.1 0 .5 1.35.03 1.11 1.3-.11.6-1.2.8-1.85.48.02-.19.06-.36.14-.52.28.15 1.05.28 1.09-.14.03-.4-1.04-.24-1.15-.85C4.85 5.08 6.33 5.2 6.8 5.4z"/></g></svg>