<?xml version="1.0" encoding="UTF-8"?>
<svg width="50" height="50" version="1.1" viewBox="0 0 50 50" xmlns="http://www.w3.org/2000/svg"><g fill="none" fill-rule="evenodd"><rect width="50" height="50" rx="25" fill="#25272B"/></g><g display="none"><path d="m34.78 22.95c0 1.04-.77 1.881-1.72 1.881-.947 0-1.718-.842-1.718-1.881 0-1.04.771-1.882 1.72-1.882.947 0 1.72.842 1.72 1.882h-.001zm-1.728-3.5c-1.764 0-3.194 1.555-3.21 3.479l-2 3.134a2.204 2.204 0 0 0 -1.47 .355l-9.057-3.987c-.237-1.173-1.198-2.059-2.342-2.059-1.319 0-2.395 1.182-2.395 2.627 0 1.443 1.076 2.62 2.395 2.62.447 0 .865-.134 1.223-.368l9.058 3.978c.234 1.179 1.195 2.066 2.342 2.066 1.24 0 2.263-1.04 2.382-2.365l3.075-2.46c1.772 0 3.21-1.569 3.21-3.507s-1.44-3.513-3.211-3.513zm0 1.158c1.188 0 2.152 1.052 2.152 2.352s-.964 2.352-2.151 2.352-2.151-1.053-2.151-2.352c0-1.298.964-2.355 2.152-2.355zm-18.08.458c.68 0 1.264.414 1.56 1.023l-.876-.381v.002c-.707-.276-1.491.1-1.774.869-.282.767.043 1.635.727 1.97v.003l.744.325c-.122.03-.25.048-.382.048-.973 0-1.76-.858-1.76-1.926 0-1.069.785-1.932 1.763-1.932l-.001-.001zm12.62 5.677c.976 0 1.763.86 1.763 1.928s-.787 1.926-1.763 1.926c-.679 0-1.266-.414-1.56-1.026l.868.381c.72.316 1.537-.061 1.826-.848.29-.786-.062-1.677-.78-1.992l-.734-.321c.122-.032.25-.05.381-.05z" fill="#fff"/></g><g><path d="m33.1 19.64a3.198 3.198 0 0 0 -3.197 3.189l-2.123 2.936a2.463 2.463 0 0 0 -.0293 -.002 2.463 2.463 0 0 0 -1.34 .3984l-8.906-3.85a2.463 2.463 0 0 0 -2.404 -1.941 2.463 2.463 0 0 0 -2.463 2.463 2.463 2.463 0 0 0 2.463 2.463 2.463 2.463 0 0 0 1.291 -.3711l8.939 3.75a2.463 2.463 0 0 0 2.42 2.014 2.463 2.463 0 0 0 2.461 -2.463 2.463 2.463 0 0 0 -.002 -.03125l2.889-2.16a3.198 3.198 0 0 0 .002 0 3.198 3.198 0 0 0 3.197 -3.197 3.198 3.198 0 0 0 -3.197 -3.197zm-.0098.9922a2.205 2.205 0 0 1 2.205 2.205 2.205 2.205 0 0 1 -2.205 2.205 2.205 2.205 0 0 1 -2.205 -2.205 2.205 2.205 0 0 1 2.205 -2.205zm-18.01.2617a1.933 1.933 0 0 1 1.756 1.131l-1.229-.5312a1.433 1.433 0 0 0 -.5312 -.1016 1.433 1.433 0 0 0 -1.432 1.432 1.433 1.433 0 0 0 .8516 1.307v.002l.0625.02539 1.168.4902a1.933 1.933 0 0 1 -.6465 .1133 1.933 1.933 0 0 1 -1.934 -1.934 1.933 1.933 0 0 1 1.934 -1.934zm18.01.2812a1.639 1.639 0 0 0 -1.639 1.639 1.639 1.639 0 0 0 1.639 1.639 1.639 1.639 0 0 0 1.639 -1.639 1.639 1.639 0 0 0 -1.639 -1.639zm-5.361 5.111a1.933 1.933 0 0 1 1.934 1.934 1.933 1.933 0 0 1 -1.934 1.934 1.933 1.933 0 0 1 -1.799 -1.225l1.32.5527.01563.0078v-.002a1.358 1.358 0 0 0 .4766 .08594 1.358 1.358 0 0 0 1.357 -1.357 1.358 1.358 0 0 0 -.8418 -1.254 1.358 1.358 0 0 0 -.03906 -.01758l-1.207-.5215a1.933 1.933 0 0 1 .7168 -.1367z" fill="#fff"/></g></svg>
