<svg xmlns="http://www.w3.org/2000/svg" width="50" height="50"><rect width="50" height="50" fill="#25272B" fill-rule="evenodd" rx="25"/><path fill="#fff" d="M33.1 19.64a3.198 3.198 0 0 0-3.197 3.189l-2.123 2.936a2.463 2.463 0 0 0-.03-.002 2.463 2.463 0 0 0-1.34.398l-8.905-3.85a2.463 2.463 0 0 0-2.404-1.94 2.463 2.463 0 0 0-2.463 2.462 2.463 2.463 0 0 0 2.463 2.463 2.463 2.463 0 0 0 1.29-.37l8.94 3.75a2.463 2.463 0 0 0 2.42 2.013 2.463 2.463 0 0 0 2.46-2.463 2.463 2.463 0 0 0-.001-.03l2.889-2.16a3.198 3.198 0 0 0 .002 0 3.198 3.198 0 0 0 3.197-3.198 3.198 3.198 0 0 0-3.197-3.197zm-.01.992a2.205 2.205 0 0 1 2.205 2.205 2.205 2.205 0 0 1-2.205 2.205 2.205 2.205 0 0 1-2.205-2.205 2.205 2.205 0 0 1 2.205-2.205zm-18.01.262a1.933 1.933 0 0 1 1.756 1.13l-1.229-.53a1.433 1.433 0 0 0-.531-.102 1.433 1.433 0 0 0-1.432 1.432 1.433 1.433 0 0 0 .852 1.307v.002l.062.025 1.168.49a1.933 1.933 0 0 1-.646.114 1.933 1.933 0 0 1-1.934-1.934 1.933 1.933 0 0 1 1.934-1.934zm18.01.281a1.639 1.639 0 0 0-1.639 1.64 1.639 1.639 0 0 0 1.64 1.638 1.639 1.639 0 0 0 1.638-1.639 1.639 1.639 0 0 0-1.639-1.639zm-5.36 5.111a1.933 1.933 0 0 1 1.933 1.934 1.933 1.933 0 0 1-1.934 1.934 1.933 1.933 0 0 1-1.799-1.225l1.32.553.016.008v-.002a1.358 1.358 0 0 0 .476.086 1.358 1.358 0 0 0 1.357-1.357 1.358 1.358 0 0 0-.841-1.254 1.358 1.358 0 0 0-.04-.018l-1.206-.522a1.933 1.933 0 0 1 .716-.136z"/></svg>