<?xml version="1.0" encoding="UTF-8"?>
<svg version="1.1" viewBox="400 1 50 50" xmlns="http://www.w3.org/2000/svg">
 <g fill-rule="evenodd">
  <path d="m400 26a25 25 0 1 1 50 0 25 25 0 0 1-50 0z" fill="#55ACEE"/>
  <path d="M424.3 21.32l.05.86-.87-.1a14.22 14.22 0 0 1-8.33-4.1L414 16.84l-.3.84a5.1 5.1 0 0 0 1.09 5.23c.7.74.54.85-.67.4-.42-.14-.78-.24-.82-.19-.12.12.3 1.73.63 2.37a5.65 5.65 0 0 0 2.4 2.26l.85.4-1.01.02c-.98 0-1.01.02-.91.39.35 1.15 1.73 2.36 3.27 2.9l1.08.36-.94.57a9.85 9.85 0 0 1-4.69 1.3 5.2 5.2 0 0 0-1.43.15c0 .17 2.13 1.16 3.37 1.55 3.73 1.15 8.15.65 11.47-1.3a15.35 15.35 0 0 0 5.83-6.86c.6-1.43 1.19-4.04 1.19-5.3 0-.8.05-.91 1.03-1.88.58-.57 1.12-1.18 1.22-1.36.18-.34.16-.34-.73-.04-1.49.53-1.7.46-.96-.33a5.14 5.14 0 0 0 1.19-1.89c0-.05-.27.04-.56.2-.32.17-1.02.44-1.54.6l-.95.3-.85-.59a7.15 7.15 0 0 0-1.5-.78 5.98 5.98 0 0 0-3.05.07 5.06 5.06 0 0 0-3.41 5.09z" fill="#FFF"/>
 </g>
</svg>
