<svg xmlns="http://www.w3.org/2000/svg" viewBox="100 161 50 50"><g fill-rule="evenodd"><path fill="#CE1312" d="M100 186c0-13.81 11.02-25 24.63-25 13.6 0 24.62 11.19 24.62 25s-11.02 25-24.62 25S100 199.81 100 186z"/><path fill="#FFF" d="M137.4 181s-.26-1.88-1.04-2.7c-1-1.1-2.12-1.1-2.63-1.16-3.67-.27-9.18-.27-9.18-.27s-5.51 0-9.19.27c-.5.06-1.63.07-2.62 1.16-.79.82-1.05 2.7-1.05 2.7s-.26 2.2-.26 4.41v2.07c0 2.2.26 4.4.26 4.4s.26 1.89 1.05 2.71c1 1.09 2.3 1.06 2.89 1.17 2.1.2 8.92.27 8.92.27s5.5 0 9.18-.28c.51-.07 1.63-.07 2.63-1.16.78-.82 1.04-2.7 1.04-2.7s.26-2.2.26-4.41v-2.07c0-2.2-.26-4.41-.26-4.41z"/><path fill="#CE1312" d="M121.9 190v-7.66l7.09 3.84z"/></g></svg>