<svg width="50" height="50" version="1.1" viewBox="100 161 50 50" xmlns="http://www.w3.org/2000/svg"><g fill-rule="evenodd"><path d="m100 186c0-13.81 11.02-25 24.63-25 13.6 0 24.62 11.19 24.62 25s-11.02 25-24.62 25-24.63-11.19-24.63-25z" fill="#CE1312"/><path d="m137.4 181s-.257-1.878-1.043-2.705c-.998-1.086-2.116-1.09-2.628-1.154-3.67-.276-9.176-.276-9.176-.276h-.012s-5.505 0-9.176.276c-.513.063-1.63.068-2.628 1.154-.787.827-1.042 2.705-1.042 2.705s-.263 2.205-.263 4.41v2.068c0 2.205.263 4.41.263 4.41s.255 1.878 1.042 2.705c.998 1.086 2.309 1.052 2.892 1.165 2.098.21 8.918.274 8.918.274s5.512-.009 9.182-.284c.512-.064 1.63-.07 2.628-1.155.786-.827 1.043-2.705 1.043-2.705s.262-2.205.262-4.41v-2.068c0-2.205-.262-4.41-.262-4.41z" fill="#FFF"/><path d="m121.9 190v-7.656l7.086 3.841z" fill="#CE1312"/></g></svg>