<!--?xml version="1.0" encoding="UTF-8"?-->
<svg width="249.66" height="75.239" version="1.1" viewBox="0 0 66.055 19.907" xmlns="http://www.w3.org/2000/svg" style="">
 <g transform="translate(-.28434 .016136)" fill="none" stroke="#fff" stroke-width="1.0007">
  <path d="m0.74491 0.55828 7.6243 17.955 4.9646-11.679 4.941 11.702 7.4706-17.66h-21.963" class="wQEfkAnJ_0"></path>
  <path d="m30.71 0.38098v19.067" class="wQEfkAnJ_1"></path>
  <path d="m47.98 2.1422c-2.3885-2.2334-7.9902-2.1285-9.8938-0.17731-1.4284 1.5721-1.4746 4.4725 0 5.6975 2.6393 2.4245 6.7104 1.8515 9.6692 4.2081 2.1853 1.7405 1.4824 4.6153-0.04728 6.0521-1.993 1.8721-8.4284 2.1048-10.948-0.18903" class="wQEfkAnJ_2"></path>
  <path d="m54.991 0.39028 0.0015 19.057" class="wQEfkAnJ_3"></path>
  <path d="m54.903 9.4035 10.97 0.0043" class="wQEfkAnJ_4"></path>
  <path d="m65.839 0.39196v19.064" class="wQEfkAnJ_5"></path>
 </g>
<style data-made-with="vivus-instant">.wQEfkAnJ_0{stroke-dasharray:87 89;stroke-dashoffset:88;animation:wQEfkAnJ_draw 3000ms ease 0ms forwards;}.wQEfkAnJ_1{stroke-dasharray:20 22;stroke-dashoffset:21;animation:wQEfkAnJ_draw 3000ms ease 0ms forwards;}.wQEfkAnJ_2{stroke-dasharray:47 49;stroke-dashoffset:48;animation:wQEfkAnJ_draw 3000ms ease 0ms forwards;}.wQEfkAnJ_3{stroke-dasharray:20 22;stroke-dashoffset:21;animation:wQEfkAnJ_draw 3000ms ease 0ms forwards;}.wQEfkAnJ_4{stroke-dasharray:11 13;stroke-dashoffset:12;animation:wQEfkAnJ_draw 3000ms ease 0ms forwards;}.wQEfkAnJ_5{stroke-dasharray:20 22;stroke-dashoffset:21;animation:wQEfkAnJ_draw 3000ms ease 0ms forwards;}@keyframes wQEfkAnJ_draw{100%{stroke-dashoffset:0;}}@keyframes wQEfkAnJ_fade{0%{stroke-opacity:1;}94.44444444444444%{stroke-opacity:1;}100%{stroke-opacity:0;}}</style></svg>
