<svg width="50" height="50" version="1.1" viewBox="0 0 50 50" xml:space="preserve" xmlns="http://www.w3.org/2000/svg"><g><path d="m7.097 37.98v-27.07h36.18v27.33z" fill="#fffffc"/></g><g><g transform="translate(-24.81,-160.5)"><g transform="matrix(.2557 0 0 .2557 18.47 156.7)"><path d="m140.9 103.9c-5.7 0-10.2 5-10.2 11.1s4.6 11.1 10.2 11.1c5.7 0 10.2-5 10.2-11.1s-4.5-11.1-10.2-11.1zm-36.5 0c-5.7 0-10.2 5-10.2 11.1s4.6 11.1 10.2 11.1c5.7 0 10.2-5 10.2-11.1.1-6.1-4.5-11.1-10.2-11.1zm18.21-88.98a97.8 97.8 0 0 0 -6.918 .2461 97.8 97.8 0 0 0 -9.705 1.178 97.8 97.8 0 0 0 -9.537 2.141 97.8 97.8 0 0 0 -9.277 3.082 97.8 97.8 0 0 0 -8.924 3.994 97.8 97.8 0 0 0 -8.479 4.863 97.8 97.8 0 0 0 -7.951 5.686 97.8 97.8 0 0 0 -7.346 6.453 97.8 97.8 0 0 0 -6.662 7.152 97.8 97.8 0 0 0 -5.916 7.781 97.8 97.8 0 0 0 -5.109 8.334 97.8 97.8 0 0 0 -4.252 8.803 97.8 97.8 0 0 0 -3.354 9.184 97.8 97.8 0 0 0 -2.418 9.471 97.8 97.8 0 0 0 -1.461 9.666 97.8 97.8 0 0 0 -.4883 9.764 97.8 97.8 0 0 0 .2441 6.918 97.8 97.8 0 0 0 1.18 9.705 97.8 97.8 0 0 0 2.141 9.537 97.8 97.8 0 0 0 3.082 9.277 97.8 97.8 0 0 0 3.992 8.922 97.8 97.8 0 0 0 4.865 8.48 97.8 97.8 0 0 0 5.686 7.951 97.8 97.8 0 0 0 6.453 7.344 97.8 97.8 0 0 0 7.152 6.664 97.8 97.8 0 0 0 7.781 5.916 97.8 97.8 0 0 0 8.334 5.109 97.8 97.8 0 0 0 8.803 4.252 97.8 97.8 0 0 0 9.184 3.352 97.8 97.8 0 0 0 9.471 2.42 97.8 97.8 0 0 0 9.666 1.461 97.8 97.8 0 0 0 9.764 .4883 97.8 97.8 0 0 0 6.918 -.2461 97.8 97.8 0 0 0 9.703 -1.178 97.8 97.8 0 0 0 9.539 -2.141 97.8 97.8 0 0 0 9.277 -3.082 97.8 97.8 0 0 0 8.922 -3.994 97.8 97.8 0 0 0 8.48 -4.863 97.8 97.8 0 0 0 7.951 -5.686 97.8 97.8 0 0 0 7.344 -6.453 97.8 97.8 0 0 0 6.664 -7.152 97.8 97.8 0 0 0 5.916 -7.781 97.8 97.8 0 0 0 5.109 -8.334 97.8 97.8 0 0 0 4.252 -8.803 97.8 97.8 0 0 0 3.352 -9.184 97.8 97.8 0 0 0 2.418 -9.471 97.8 97.8 0 0 0 1.461 -9.666 97.8 97.8 0 0 0 .4902 -9.764 97.8 97.8 0 0 0 -.2461 -6.918 97.8 97.8 0 0 0 -1.178 -9.705 97.8 97.8 0 0 0 -2.141 -9.537 97.8 97.8 0 0 0 -3.082 -9.277 97.8 97.8 0 0 0 -3.994 -8.922 97.8 97.8 0 0 0 -4.863 -8.48 97.8 97.8 0 0 0 -5.688 -7.951 97.8 97.8 0 0 0 -6.451 -7.344 97.8 97.8 0 0 0 -7.152 -6.664 97.8 97.8 0 0 0 -7.783 -5.916 97.8 97.8 0 0 0 -8.334 -5.109 97.8 97.8 0 0 0 -8.801 -4.252 97.8 97.8 0 0 0 -9.184 -3.352 97.8 97.8 0 0 0 -9.471 -2.42 97.8 97.8 0 0 0 -9.666 -1.461 97.8 97.8 0 0 0 -9.764 -.4883zm-15.41 51.68 1 1.201c-18 5.2-26.3 13.1-26.3 13.1s2.2-1.2 5.9-2.9c10.7-4.7 19.2-6.001 22.7-6.301.6-.1 1.099-.1992 1.699-.1992 6.1-.8 13-.9992 20.2-.1992 9.5 1.1 19.7 3.9 30.1 9.6 0 0-7.9-7.501-24.9-12.7l1.4-1.6s13.7-.3 28.1 10.5c0 0 14.4 26.1 14.4 58.3 0 0-8.5 14.5-30.6 15.2 0 0-3.6-4.3-6.6-8.1 13.1-3.7 18.1-11.9 18.1-11.9-4.1 2.7-8 4.6-11.5 5.9-5 2.1-9.8 3.501-14.5 4.301-9.6 1.8-18.4 1.298-25.9-.1016-5.7-1.1-10.6-2.699-14.7-4.299-2.3-.9-4.801-2-7.301-3.4-.3-.2-.6004-.3-.9004-.5-.2-.1-.3004-.2008-.4004-.3008-1.8-1-2.799-1.699-2.799-1.699s4.8 8.001 17.5 11.8c-3 3.8-6.701 8.299-6.701 8.299-22.1-.7-30.5-15.2-30.5-15.2 0-32.2 14.4-58.3 14.4-58.3 14.4-10.8 28.1-10.5 28.1-10.5z" fill="#7289da"/></g></g></g></svg>
