<svg width="50" height="50" viewBox="0 0 50 50" xmlns="http://www.w3.org/2000/svg"><g fill="none" fill-rule="evenodd"><path d="M42.105 25c0 10.174-8.247 18.421-18.42 18.421C13.51 43.421 5.262 35.174 5.262 25S13.511 6.579 23.684 6.579c10.174 0 18.421 8.247 18.421 18.421z" fill="#FFF"></path><path d="M50 25c0 13.807-11.193 25-25 25S0 38.807 0 25 11.193 0 25 0s25 11.193 25 25z" fill="#F58AAB"></path><g fill="#FFF"><path d="M16.513 26.372c0 1.49-.381 2.666-1.145 3.527-.763.864-1.782 1.294-3.065 1.294-1.29 0-2.316-.43-3.077-1.293-.76-.862-1.14-2.04-1.14-3.526 0-1.491.381-2.669 1.14-3.533.76-.869 1.787-1.299 3.08-1.299 1.28 0 2.302.432 3.065 1.297.763.864 1.145 2.04 1.145 3.53l-.003.003zm-1.583-.07c0-1.18-.231-2.06-.694-2.635-.464-.575-1.106-.863-1.93-.863-.832 0-1.48.29-1.94.864-.46.575-.691 1.454-.691 2.637 0 1.145.233 2.013.697 2.606.46.592 1.108.886 1.935.886.82 0 1.46-.293 1.927-.879.466-.585.698-1.456.698-2.611l-.002-.004zm10.49 2.018c0 .842-.345 1.529-1.034 2.066-.69.539-1.632.809-2.825.809a6.722 6.722 0 0 1-1.86-.244 8.228 8.228 0 0 1-1.418-.531v-1.74h.081a6.16 6.16 0 0 0 1.619.878 4.974 4.974 0 0 0 1.71.325c.674 0 1.203-.11 1.585-.33.381-.219.572-.565.572-1.039 0-.36-.105-.635-.31-.822-.208-.187-.606-.346-1.195-.478a26.203 26.203 0 0 0-.856-.17c-.35-.066-.67-.14-.96-.216-.803-.215-1.368-.53-1.704-.944-.336-.414-.503-.923-.503-1.526 0-.382.08-.737.233-1.072a2.59 2.59 0 0 1 .707-.9c.302-.257.692-.46 1.164-.612a5.171 5.171 0 0 1 1.582-.228c.545 0 1.097.066 1.655.201.483.108.951.273 1.395.491v1.657h-.082a5.49 5.49 0 0 0-1.431-.737 4.895 4.895 0 0 0-1.652-.3c-.561 0-1.035.11-1.42.326-.389.216-.582.54-.582.967 0 .38.118.665.351.856.23.193.6.35 1.112.47.283.066.601.132.953.198.35.066.644.126.879.182.714.165 1.263.447 1.65.85.388.407.58.944.58 1.614l.004-.001zm9.77 2.616h-1.539v-1.02a7.433 7.433 0 0 1-1.487.947 3.68 3.68 0 0 1-1.568.33c-.96 0-1.707-.296-2.24-.886-.536-.59-.803-1.457-.803-2.6v-6.164h1.536v5.43c0 .468.023.87.066 1.198.044.334.136.618.277.855.148.241.34.416.573.527.234.109.575.164 1.023.164.398 0 .834-.105 1.305-.313a6.079 6.079 0 0 0 1.32-.799v-7.062h1.538v9.393zm5.724-12.273l-.217 8.93h-1.39l-.228-8.931h1.833l.002.001zm-.082 12.096h-1.666v-1.723h1.667v1.723h-.001z" opacity=".6"></path><path d="M40.912 18.662l-.003.145h-1.823l-.007-.145h1.833zm-1.824.29l.004.144h1.81l.003-.145H39.09zm.008.286l.003.145h1.796l.004-.145h-1.803zm.007.29l.004.144h1.782l.004-.144h-1.79zm.008.29l.003.144h1.768l.004-.145h-1.777.002zm.007.286l.003.145h1.754l.003-.145h-1.76zm.007.29l.004.142h1.737l.005-.145h-1.746v.002zm.008.286l.005.145h1.724l.004-.145h-1.734zm.008.29l.004.142h1.71l.003-.145h-1.719l.002.003zm.008.287l.004.144h1.697l.003-.144h-1.704zm.008.29l.002.141h1.684v-.145h-1.685l-.001.003zm.006.286l.004.145h1.667l.004-.145h-1.675zm0 8.642v.145h1.669v-.145H39.163zm0-.29v.145h1.669v-.144H39.163zm0-.286v.144h1.669V29.9H39.163zm0-.29v.145h1.669v-.145H39.163zm0-.287v.145h1.669v-.145H39.163zm0-.29v.146h1.669v-.145H39.163zm.008-6.91v.144h1.655l.004-.145h-1.658zm.005.289l.004.144h1.64l.004-.144h-1.648zm.008.286l.004.145h1.625l.004-.145h-1.633zm.008.29l.003.145h1.612l.002-.145h-1.618.001zm.007.287l.005.144H40.8l.004-.144h-1.605zm.009.29l.004.144h1.581l.004-.145h-1.59zm.006.286l.004.145h1.569l.002-.145h-1.578.003zm.008.29l.004.144h1.556l.002-.145h-1.562zm.008.286l.004.145h1.54l.002-.145H39.23h.001zm.007.29l.002.145h1.527l.002-.145h-1.531zm.006.287l.004.144h1.51l.006-.147h-1.52v.003zm.008.29l.004.141h1.498l.004-.145H39.25l.001.003zm.008.286l.004.145h1.482l.002-.145h-1.49.002zm.008.29l.004.142h1.468l.004-.145H39.27l-.003.002zm.007.286l.004.145h1.454l.004-.145h-1.462zm.008.29l.004.142h1.439l.004-.145h-1.447v.003zm.007.287v.144h1.428l.003-.144h-1.43zm.006.29l.004.141h1.412l.002-.145h-1.418v.003zm.008.286l.004.145h1.397l.003-.145h-1.404zm-5.65 3.455v.142h1.536v-.144h-1.536v.002zm0-.29v.145h1.536v-.144h-1.536zm0-.289v.145h1.536v-.145h-1.536zm0-.287v.144h1.536v-.142h-1.536v-.002zm-1.889-.29c-.24.07-.487.107-.736.11v.036h4.163v-.145h-3.428.001zm.748-.286c-.107.051-.215.1-.324.145h3.003v-.145h-2.68zm.526-.29c-.081.051-.163.1-.247.145h2.4v-.144h-2.152zm.432-.286c-.066.05-.136.097-.204.144h1.926v-.144H33.47zm.184-.29v.145h1.537v-.145h-1.537zm0-.287v.145h1.537v-.145h-1.537zm0-.29v.146h1.537v-.145h-1.537zm0-.286v.145h1.537v-.145h-1.537zm0-.287v.145h1.537v-.145h-1.537zm0-.29v.146h1.537v-.145h-1.537zm0-.286v.145h1.537v-.145h-1.537zm0-.29v.145h1.537v-.145h-1.537zm0-.286v.144h1.537v-.144h-1.537zm0-.29v.145h1.537v-.145h-1.537zm0-.287v.145h1.537v-.145h-1.537zm0-.29v.146h1.537v-.145h-1.537zm0-.286v.145h1.537V25h-1.537zm0-.29v.145h1.537v-.144h-1.537zm0-.286v.144h1.537v-.144h-1.537zm0-.29v.145h1.537v-.145h-1.537zm0-.287v.145h1.537v-.145h-1.537zm0-.29v.146h1.537v-.145h-1.537zm0-.286v.145h1.537v-.145h-1.537zm0-.29v.145h1.537v-.144h-1.537zm0-.286v.144h1.537v-.144h-1.537zm0-.287v.145h1.537v-.145h-1.537zm0-.29v.145h1.537v-.145h-1.537zm0-.286v.144h1.537v-.144h-1.537zm0-.29v.145h1.537v-.145h-1.537zm-5.6 8.355l.092.145h5.345l.163-.128v-.017h-5.601zm.303.408l.02.024h4.715c.069-.047.137-.095.204-.145H28.25c.034.042.068.083.105.121h.002zm.335.312h3.94c.079-.046.157-.095.24-.145H28.52c.055.05.112.1.17.145h.002zm.474.287h2.901a3.47 3.47 0 0 0 .303-.145H28.9c.085.053.174.103.266.145h-.001zm1.43.287a3.86 3.86 0 0 0 1.06-.142h-2.11c.316.094.666.142 1.05.142zm-.442-1.583h-2.25l.07.145h3.052v-.037a2.921 2.921 0 0 1-.873-.108zm-.483-.29H27.79c.016.05.033.1.053.145h2.008a1.207 1.207 0 0 1-.18-.145h.001zm-.233-.286h-1.737l.04.144h1.797a1.592 1.592 0 0 1-.101-.144h.001zm-.14-.29h-1.659l.03.145h1.69a1.671 1.671 0 0 1-.062-.145zm-.09-.287h-1.612c.005.049.013.098.02.145h1.631a2.079 2.079 0 0 1-.04-.145zm-.053-.284h-1.587l.014.145h1.596a3.243 3.243 0 0 1-.023-.141v-.004zm-.031-.29h-1.569c0 .048.003.097.006.145h1.578l-.015-.144zm-.02-.289H27.55v.145h1.56a8.181 8.181 0 0 1-.008-.145zm-.013-.287h-1.54v.145h1.546a6.082 6.082 0 0 1-.005-.145h-.001zm-.003-.29h-1.535v.146h1.54l-.004-.145zm-1.537-.286v.145h1.537v-.145h-1.537zm0-.29v.145h1.537v-.145h-1.537zm0-.286v.144h1.537v-.144h-1.537zm0-.29v.145h1.537v-.145h-1.537zm0-.287v.145h1.537v-.145h-1.537zm0-.29v.146h1.537v-.145h-1.537zm0-.286v.145h1.537V25h-1.537zm0-.29v.145h1.537v-.144h-1.537zm0-.286v.144h1.537v-.144h-1.537zm0-.29v.145h1.537v-.145h-1.537zm0-.287v.145h1.537v-.145h-1.537zm0-.29v.146h1.537v-.145h-1.537zm0-.286v.145h1.537v-.145h-1.537zm0-.29v.145h1.537v-.144h-1.537zm0-.286v.144h1.537v-.144h-1.537zm0-.287v.145h1.537v-.145h-1.537zm0-.29v.145h1.537v-.145h-1.537zm0-.286v.144h1.537v-.144h-1.537zm0-.29v.145h1.537v-.145h-1.537zm-2.135 6.63H23.81c.013.045.02.094.026.144h1.581c0-.049 0-.098-.002-.145zm-1.566.348c0 .029 0 .056-.004.084h1.56c.004-.048.008-.096.01-.145h-1.569v.06h.003zm1.54-.637h-1.698a.786.786 0 0 1 .074.145h1.64a2.974 2.974 0 0 0-.018-.145h.001zm-1.587 1.008h1.558c.01-.048.02-.096.026-.145h-1.555a1.213 1.213 0 0 1-.03.145zm1.526-1.298h-1.925c.065.042.125.09.179.145h1.78a2.516 2.516 0 0 0-.034-.145zm-1.65 1.586h1.603a1.84 1.84 0 0 0 .044-.145h-1.572c-.021.05-.046.099-.075.145zm-.982-1.872c.158.044.3.092.421.144h2.168a2.208 2.208 0 0 0-.056-.144h-2.533zm.716 2.16h1.748c.023-.047.045-.096.065-.145h-1.655c-.048.054-.1.102-.158.145zm1.667-2.447h-3.725c.247.045.492.093.737.144l3.074-.002a2.02 2.02 0 0 0-.083-.145l-.003.003zm-2.284 2.73h2.197c.033-.047.064-.095.093-.145h-1.908a2.21 2.21 0 0 1-.382.145zm2.116-5.905l.066.131h.083v-.131h-.15zm-.46-.29c.082.049.165.096.244.145h.365v-.145h-.611.001zm-.61-.287c.11.046.22.095.325.145h.892v-.145h-1.218.001zm-.89-.29c.168.04.335.09.503.146h1.606v-.145h-2.108zm-4.007-.28c-.042.046-.081.094-.119.144h6.233v-.145h-6.114zm.296-.287a2.626 2.626 0 0 0-.158.144h5.976v-.144h-5.818zm5.562-.29h-5.158a2.789 2.789 0 0 0-.221.145h5.635v-.023a4.245 4.245 0 0 0-.256-.12v-.002zm.058 4.61h-4.669c.167.056.337.105.508.145h4.28a1.91 1.91 0 0 0-.118-.144h-.001zM18.28 29.9v.145h6.48a2.54 2.54 0 0 0 .122-.145h-6.601zm6.255-3.457h-5.019c.092.05.19.1.296.145h4.9c-.057-.05-.116-.1-.177-.145zm-6.254 3.886h6.175c.057-.046.111-.095.163-.145h-6.337v.145h-.001zm5.694-8.497h-3.713a3.617 3.617 0 0 0-.347.144h4.52a7.257 7.257 0 0 0-.46-.144zm.08 4.32h-4.968c.06.05.123.098.19.145h5.04a3.079 3.079 0 0 0-.265-.144h.002zm-5.34 4.466h5.329c.079-.046.151-.094.223-.144h-5.881c.105.048.213.097.329.144zm.826.287h3.888a3.71 3.71 0 0 0 .345-.144H19.1c.14.05.29.098.443.144zm3.675-5.04h-4.41l.018.02c.034.043.07.083.11.123h4.773a4.487 4.487 0 0 0-.49-.145v.003zm-1.21-4.315c-.454 0-.877.045-1.264.137h2.632a6.938 6.938 0 0 0-1.368-.138v.001zm-.574 9.645h.253a6.1 6.1 0 0 0 1.253-.145h-2.844c.44.092.89.14 1.34.145h-.002zm.874-5.52a25.002 25.002 0 0 1-.506-.099h-3.185c.026.049.056.098.088.145h3.838l-.234-.046h-.001zm-1.57-.386h-2.255c.018.048.04.097.06.143h2.632a3.901 3.901 0 0 1-.437-.145v.002zm-2.1-2.163h1.942a2.43 2.43 0 0 1 .372-.144h-2.227c-.031.047-.06.095-.087.144zm1.487 6.482h-1.842v.145h2.34a5.526 5.526 0 0 1-.498-.145zm.118-4.601a.096.096 0 0 1-.005-.007h-1.842l.04.145h2.006a1.408 1.408 0 0 1-.195-.137l-.004-.001zm-1.685-1.72c-.02.042-.039.085-.056.129h1.669c.05-.054.106-.102.166-.145h-1.774l-.007.016h.002zm1.45 1.424h-1.665l.021.144h1.733a.826.826 0 0 1-.088-.144zm-1.56-1.15c-.015.047-.03.096-.042.144h1.573a.905.905 0 0 1 .079-.144h-1.61zm1.467.864h-1.592c0 .049.004.096.007.145h1.621a1.053 1.053 0 0 1-.036-.145zm-1.565-.432H19.9c.006-.048.015-.097.027-.144h-1.556c-.009.048-.017.096-.023.144zm1.543.158v-.013h-1.56a2.118 2.118 0 0 0-.008.145h1.57a1.647 1.647 0 0 1-.002-.132zm-.479 5.171h-1.131v.145h1.457a5.868 5.868 0 0 1-.326-.145zm-.534-.29h-.597v.146h.848a5.721 5.721 0 0 1-.252-.145zm-.432-.286h-.165v.145h.37a5.408 5.408 0 0 1-.205-.145zm-3.523-2.162h1.59v-.145h-1.585c0 .05-.003.098-.004.145h-.001zm1.588-.431h-1.586v.144h1.587v-.144h-.001zm-.013-.29h-1.583l.006.145h1.583a6.096 6.096 0 0 0-.008-.145h.002zm-1.592 1.01h1.592l.006-.145h-1.588a6.049 6.049 0 0 1-.01.144zm-.027.289h1.594l.013-.145h-1.592l-.017.145h.002zm1.592-1.586h-1.579c.007.048.01.095.014.145h1.579a4.547 4.547 0 0 0-.014-.145zm-1.634 1.871h1.605l.019-.142H14.86a4.29 4.29 0 0 1-.024.145l.001-.003zm1.603-2.158h-1.58c.009.047.014.093.02.143h1.58a4.621 4.621 0 0 0-.022-.145l.002.002zm-1.665 2.448h1.616l.026-.145H14.81c-.01.049-.02.097-.033.145zM16.39 25h-1.578c.01.047.02.095.026.145h1.579a3.637 3.637 0 0 0-.027-.145zm-1.694 3.026h1.631c.013-.048.027-.097.036-.144h-1.625a2.998 2.998 0 0 1-.042.144zm1.631-3.315h-1.584l.04.144h1.579a4.66 4.66 0 0 0-.035-.144zm-1.74 3.605h1.661c.015-.048.03-.096.042-.145h-1.644a2.729 2.729 0 0 1-.06.145zm1.657-3.89h-1.592l.049.145h1.587a3.697 3.697 0 0 0-.042-.145h-.002zm-1.802 4.178h1.706l.053-.145h-1.682c-.023.05-.049.098-.076.145h-.001zm1.704-4.468h-1.616c.022.047.045.094.066.144h1.602a4.547 4.547 0 0 0-.052-.144zm-1.895 4.753h1.776l.066-.144h-1.737c-.034.05-.068.097-.105.144zm1.776-5.042h-1.658c.03.048.06.095.087.145h1.634a3.957 3.957 0 0 0-.063-.145zm-2.034 5.33h1.89c.026-.048.05-.097.075-.145h-1.825c-.046.05-.093.098-.143.144h.003zm1.888-5.62h-1.737c.043.048.084.096.123.146h1.69a3.64 3.64 0 0 0-.076-.145zm-2.27 5.909h2.098c.032-.048.062-.096.092-.145h-1.98a2.013 2.013 0 0 1-.21.145zm2.093-6.195h-1.874c.06.045.118.092.171.145h1.793a3.586 3.586 0 0 0-.092-.145h.002zm-2.891 6.482h2.684a3.25 3.25 0 0 0 .11-.145h-2.288a2.326 2.326 0 0 1-.509.145h.003zm2.68-6.77h-2.176c.105.04.202.09.297.145H15.6a2.997 2.997 0 0 0-.11-.145h.002zm-3.19 6.914H9.225l.002.003c.042.049.086.096.132.14h5.881c.045-.043.089-.091.132-.139V29.9h-3.066l-.002-.002zm2.935-7.202H9.359a3.624 3.624 0 0 0-.131.144h2.596c.316-.048.637-.048.954 0h2.592a3.632 3.632 0 0 0-.136-.144h.003zM9.67 30.329h5.255c.057-.046.11-.092.165-.145H9.504c.053.053.108.1.164.145h.003zm5.25-7.921h-5.25a3.224 3.224 0 0 0-.166.145h5.58a3.621 3.621 0 0 0-.164-.145zm-4.847 8.21h4.447c.075-.046.147-.094.218-.144H9.858c.068.05.14.098.216.144zm4.447-8.5h-4.446a3.184 3.184 0 0 0-.217.145h4.879a3.27 3.27 0 0 0-.217-.145h.001zm-3.87 8.79h3.292c.11-.043.217-.091.321-.145H10.33c.106.053.21.101.321.145zm3.29-9.074h-3.286c-.109.042-.217.092-.32.145h3.928a3.518 3.518 0 0 0-.32-.145h-.002zm-1.638 9.36a4.68 4.68 0 0 0 1.197-.145h-2.4a4.73 4.73 0 0 0 1.203.144zm0-9.65c-.428 0-.83.047-1.2.144h2.394a4.714 4.714 0 0 0-1.193-.145h-.001zm-1.02 8.065h-2.29c.036.049.071.098.11.145h2.69a2.39 2.39 0 0 1-.51-.145zm-2.287-6.481h1.987c.095-.056.195-.105.299-.145H9.105a3.25 3.25 0 0 0-.109.145zm1.784 6.193H8.803c.026.049.058.097.09.145h2.1a2.097 2.097 0 0 1-.213-.145zm-1.973-5.905h1.79c.053-.051.11-.1.17-.145H8.895c-.031.048-.06.096-.09.145h.002zm1.665 5.618H8.641c.024.049.049.097.075.145h1.895a2.307 2.307 0 0 1-.14-.145h.001zm-1.827-5.33h1.69c.037-.05.076-.098.118-.145h-1.73a2.141 2.141 0 0 0-.076.145h-.002zm1.605 5.04H8.51c.019.048.039.097.062.144h1.78a2.351 2.351 0 0 1-.102-.145zm-1.737-4.752h1.632a2.46 2.46 0 0 1 .087-.145H8.574a4.701 4.701 0 0 0-.062.145h.001zm1.571 4.465H8.4c.016.048.033.097.053.144h1.705a2.478 2.478 0 0 1-.076-.144h.002zM8.4 24.28h1.605a1.8 1.8 0 0 1 .066-.144h-1.62a3.797 3.797 0 0 0-.052.144H8.4zm1.56 3.888H8.31c.012.05.026.098.041.145h1.666a2.862 2.862 0 0 1-.06-.145h.004zm-1.65-3.6h1.587c.016-.048.032-.096.05-.144H8.355c-.015.048-.03.096-.043.144H8.31zm1.553 3.312H8.237c.013.048.024.096.035.145h1.636a3.974 3.974 0 0 1-.044-.145zm-1.59-3.17l-.034.145h1.58l.039-.144H8.272zm1.52 2.882H8.184c.007.049.013.097.024.145h1.618a3.375 3.375 0 0 1-.033-.145zm-1.609-2.447h1.58c.007-.049.016-.097.025-.145H8.211c-.01.048-.019.096-.027.145zm1.557 2.158h-1.6l.018.144h1.605a7.079 7.079 0 0 1-.022-.144h-.001zm-1.6-1.871H9.72c.005-.049.011-.097.018-.145H8.162l-.02.145h-.001zm1.566 1.585H8.109l.013.145H9.72a5.855 5.855 0 0 1-.016-.145h.003zM8.11 25.72h1.578l.014-.145h-1.58c-.004.048-.009.096-.012.145zm1.57 1.009H8.093l.01.145h1.591a8.779 8.779 0 0 1-.01-.145h-.001zm-1.589-.721h1.584l.007-.145H8.1a6.096 6.096 0 0 0-.008.145zm1.582.434H8.086c0 .046 0 .095.002.142h1.588l-.002-.145v.003zm-1.587-.145H9.67c0-.05 0-.097.003-.144H8.088v.144h-.001z"></path></g></g></svg>
